#!OML:ASF F:\VICON\USERDATA\INSTALL\rory3\rory3.ASF
:FULLY-SPECIFIED
:DEGREES
53
root 0.028410252906226674 18.04769156677219 26.960171788087067 -4.507885274262767 -1.217589992004624 -4.768383008406172
lfemur -13.531215810180072 2.1407894137748453 -14.530725435452034
ltibia 68.39230732801508
lfoot -0.5312569130519513 -11.8395034917096
ltoes -4.086110559776427
rfemur -8.83487247625312 4.731345616736552 31.508084025074233
rtibia 28.416093026466303
rfoot -13.282644624741618 -4.819397672287534
rtoes 9.05364185523782
lowerback 9.600114085559696 -0.3926259361252384 2.93557670815005
upperback 0.1927153330003874 -0.04272107044900009 2.3062934297795477
thorax -5.327193665648314 -0.10029145670670175 0.9409894775922074
lowerneck -15.560394079705969 -2.694059917019426 -3.026212370501894
upperneck 21.734724989354326 -3.2856224830850307 1.3027107933111766
head 9.479892550351677 -1.6378182818719451 0.590697957722375
lclavicle 1.4636918672622448e-16 2.3651210150513555e-16
lhumerus -29.593998761334745 2.7504999408154993 80.47200683411127
lradius 28.734057276124503
lwrist 6.100329390685471
lhand -28.48156175898967 19.074154560145704
lfingers 7.12502
lthumb -1.7427209268301946 49.38929752469807
rclavicle 1.4706011330359534e-16 2.370672933134701e-16
rhumerus -30.593501682329876 -21.502353836539484 -77.59723191814237
rradius 22.60369898482029
rwrist 7.1991399411645665
rhand -17.09785881608232 22.110259560735237
rfingers 7.12502
rthumb 8.98897497163551 -7.519303625168012
54
root 0.051555860650641494 17.9781221223476 27.553790912164665 -4.137896742242332 -2.0745486232478587 -5.450981002510509
lfemur -18.920027888039797 2.829477823052308 -13.7988036825698
ltibia 67.25252671069327
lfoot -4.4088379481353765 -8.17647854295413
ltoes -4.745116238917476
rfemur -6.497094467169652 4.654228225125621 32.77644405547821
rtibia 29.429689988405194
rfoot -16.183125835508186 -5.093595916453205
rtoes 8.227321050165198
lowerback 9.899068676492975 0.03922897620388954 4.091247040197651
upperback 0.13149077914843102 0.677155018131424 2.1153115584192537
thorax -5.634732980200926 0.24360294532447807 0.03985337328291827
lowerneck -15.464403882921552 -2.748275684294429 -3.016030442296951
upperneck 21.63826620660449 -3.3741158008764947 1.3584230047459154
head 9.44079172827216 -1.6700544637455736 0.6105858724162238
lclavicle 1.4780009569275407e-16 2.376173593543331e-16
lhumerus -31.340755573296462 3.6249465682289888 80.42225615080201
lradius 28.363168475664576
lwrist 8.058759441267
lhand -29.242793212259617 17.56968538270874
lfingers 7.12502
lthumb -2.430732233870972 48.17784922171156
rclavicle 1.4677582318419018e-16 2.368487136910855e-16
rhumerus -28.800487025445303 -17.71621048792884 -79.31197659979976
rradius 25.013292931216647
rwrist 4.447470259354788
rhand -17.398531432638126 21.76524738625653
rfingers 7.12502
rthumb 8.515899025979696 -8.050437783702815
55
root 0.09465742420843964 17.925265896296224 28.306523835522178 -3.4944818735097543 -2.7770154094273116 -5.860742382204683
lfemur -23.20138455627073 2.8707868366148963 -13.3133256612474
ltibia 62.56627992927675
lfoot -6.39361601182121 -3.786696486489783
ltoes -4.869906832940151
rfemur -4.178208081194986 4.499350564256964 33.447293087462754
rtibia 29.72797675843225
rfoot -18.425633773930308 -5.487445735858806
rtoes 8.351715118802247
lowerback 10.177064314076407 0.44046410854674845 5.052928532769904
upperback 0.06480282260922209 1.3559354755334967 2.0083961608482466
thorax -5.80160076968451 0.5548108697166216 -0.7940915212391566
lowerneck -15.532377976976433 -2.798148411752034 -2.9558414635375088
upperneck 21.456295302801145 -3.452857257796206 1.3850955975651784
head 9.39334706425677 -1.6948503912836186 0.6117248554445927
lclavicle 1.4734152369671544e-16 2.372688436599647e-16
lhumerus -32.64254019832094 4.360910967779338 80.36822556815602
lradius 27.80950881698134
lwrist 8.333701050307562
lhand -29.926397728850255 17.375025194452085
lfingers 7.12502
lthumb -3.0817619950786765 47.75274437007439
rclavicle 1.476539017009421e-16 2.3752385206313835e-16
rhumerus -26.79632000509067 -14.112961844980726 -80.57677793945867
rradius 27.334239147392864
rwrist 2.1608678300300164
rhand -17.80240258121363 21.817508490448134
rfingers 7.12502
rthumb 8.010613154149398 -8.034464923029761
56
root 0.14099392552170187 17.87333834241064 29.15472633678126 -2.4592183151483353 -3.372611353009897 -6.33315271103515
lfemur -25.986817803877546 1.6727028342023713 -12.433483041635695
ltibia 53.653659641383115
lfoot -6.507873805977701 0.473027795639025
ltoes -3.0089096811040803
rfemur -1.3510929861069023 4.4512175176445 34.03823585666606
rtibia 28.927758534954698
rfoot -19.858019652160582 -6.099649441419024
rtoes 7.527426172462677
lowerback 9.938528829886371 0.8079621851341336 5.941244180849376
upperback 0.01884360567896201 2.003524615778673 1.9634164515309958
thorax -5.60428786982569 0.840752534024402 -1.5215477155052293
lowerneck -15.706976433809963 -2.816033929694228 -2.850796322407158
upperneck 21.22917500023573 -3.4758668304179787 1.382626251660031
head 9.331225659978132 -1.6952945296877207 0.6132409506930383
lclavicle 1.4720872733135725e-16 2.3716491039813316e-16
lhumerus -33.832845783060364 5.289968190978516 80.27080596362408
lradius 26.86574386519022
lwrist 7.37063658769789
lhand -30.0355050497371 17.63749471830201
lfingers 7.12502
lthumb -3.238677394224685 47.75724333067611
rclavicle 1.4638023529302106e-16 2.3654452122916783e-16
rhumerus -24.730654608711752 -11.700812225133358 -81.16533585897515
rradius 29.025026092308472
rwrist 0.7236885519489964
rhand -18.14123371675835 22.170484391151707
rfingers 7.12502
rthumb 7.7350968011192105 -7.447157858424384
57
root 0.1990308517254029 17.808877383592645 30.100920153918295 -1.5156449161081245 -4.139557114131318 -6.809623296234356
lfemur -26.760302560381007 -1.1878612975767062 -10.64075392821974
ltibia 41.229663336131
lfoot -6.163728058840714 2.8134926971212737
ltoes -2.856701278056126
rfemur 1.7648198583569332 4.735384127056181 34.49539102497576
rtibia 27.362056011339043
rfoot -21.017119893208235 -6.5912600554399585
rtoes 5.995684680994285
lowerback 9.517499040873094 1.2659214590564685 6.654664183468436
upperback -0.07601611119204774 2.720190215606684 1.9243150775503906
thorax -5.324532505927157 1.2005677511673356 -2.141050979842367
lowerneck -15.91638624972794 -2.8218175834352817 -2.728207047544748
upperneck 21.16876036470355 -3.491145808966486 1.3719591324350198
head 9.338004819817087 -1.6949034973882031 0.590682511653556
lclavicle 1.4647683997086186e-16 2.366007505067108e-16
lhumerus -34.93204544061018 6.491677150017973 80.06278231863101
lradius 25.587377816825587
lwrist 7.088064083901773
lhand -29.9542634891122 17.7913919786943
lfingers 7.12502
lthumb -3.250100797038287 47.54997563798689
rclavicle 1.4685034913602706e-16 2.369060009410664e-16
rhumerus -23.03595408806278 -10.397429699535172 -81.35334381036344
rradius 30.250345977023056
rwrist -0.016717598647453258
rhand -18.445264125795745 22.530507383396884
rfingers 7.12502
rthumb 7.599994436991627 -6.794727614430088
58
root 0.27155367861005014 17.729541832214927 31.059763002667268 -0.9269969992788929 -4.899391316685017 -7.087077364101413
lfemur -26.141341449479594 -5.542104567797729 -8.318684089905803
ltibia 25.809597277341403
lfoot -6.594729526159551 5.578346779558036
ltoes -3.357055617058514
rfemur 4.672565645200976 5.137386747282298 34.6366234430743
rtibia 26.069018334396297
rfoot -21.912716086092747 -6.395304272990744
rtoes 2.6113199527604483
lowerback 9.106636804485039 1.7171763848923518 7.083077603627799
upperback -0.1396377674629023 3.348740062368667 1.8425786692037824
thorax -5.097647910210343 1.4909962261014482 -2.556267313997989
lowerneck -16.158012756484037 -2.8192559145082505 -2.5560889221634486
upperneck 21.229141772674502 -3.4963545913828624 1.2946093788305153
head 9.38266935322501 -1.6934284098729753 0.5272868652562976
lclavicle 1.4631099171262462e-16 2.3647286419685376e-16
lhumerus -35.90848729536134 7.611622924641752 79.8500212729462
lradius 24.05543778234176
lwrist 6.333489171780293
lhand -29.83731225420756 18.223288843952847
lfingers 7.12502
lthumb -3.0907628908153573 47.86590943211199
rclavicle 1.4741493548366858e-16 2.3734006741253033e-16
rhumerus -21.536010743084283 -9.868529506678406 -81.3102374089423
rradius 30.979989601704276
rwrist -0.6697145756577001
rhand -18.671987876883158 22.936540192838788
rfingers 7.12502
rthumb 7.39087498027571 -6.479631097674195
59
root 0.36605968283695395 17.643794885241764 32.178276677162586 -0.9164104547627159 -4.917003870283047 -6.742729101744403
lfemur -25.76388167263901 -6.73578817465151 -8.431231547664483
ltibia 14.334708793695238
lfoot -7.658404639394238 7.49578946574918
ltoes -3.014341687012393
rfemur 6.613676049092241 5.146915050201091 34.18552415560368
rtibia 27.390774125603027
rfoot -21.990774601832964 -5.282535636310087
rtoes -1.9512412333136333
lowerback 8.774472773454628 1.9189520198007524 6.959916484950285
upperback -0.1328311501031066 3.513887038394303 1.6575817689436265
thorax -4.901943598418239 1.5836401304583345 -2.729696264288827
lowerneck -16.326158020429077 -2.8351001169342838 -2.434180147962183
upperneck 21.344440150131444 -3.521515302684644 1.2143537138394735
head 9.431385966295924 -1.7073029198313328 0.4754617252399737
lclavicle 1.4699584776311039e-16 2.370007184149837e-16
lhumerus -36.78773951081645 8.800501615724082 79.61086095303577
lradius 22.156141896866842
lwrist 4.8602086696886975
lhand -29.664162662564017 18.69364392539812
lfingers 7.12502
lthumb -2.9252986331818907 48.05189613801201
rclavicle 1.4712489923880555e-16 2.3711711728869747e-16
rhumerus -20.58051252057888 -10.144418074468465 -81.101327239417
rradius 31.329064288980618
rwrist -0.836414003612413
rhand -18.884095384408013 23.400943080214446
rfingers 7.12502
rthumb 7.132620402576074 -6.2848833732213
60
root 0.4882105296459358 17.662315877723653 33.22371772807085 -1.7066069169634963 -4.915514524203052 -5.387225333056053
lfemur -26.237646342971253 -4.529989822116908 -11.455513935147817
ltibia 15.569294503567287
lfoot -5.569683845455713 4.39471080145772
ltoes -2.9379067435409847
rfemur 7.730333942406773 5.179599836548448 32.454854036186354
rtibia 30.392353894729403
rfoot -19.646236445259113 -2.692530331819697
rtoes -6.000692712751121
lowerback 8.601712943860779 2.2158239962521287 5.900434825342326
upperback -0.09139168772334522 3.652183318426592 1.3339579061806939
thorax -4.821180117168342 1.6967399657138516 -2.6203067941102938
lowerneck -16.36248412548372 -2.881608239586782 -2.328915241584599
upperneck 21.56796781012181 -3.5895477639797067 1.098759400927834
head 9.502287049269752 -1.7448464764628842 0.4087833563508108
lclavicle 1.4638792877313236e-16 2.365367839085078e-16
lhumerus -37.54945819939157 10.461194517942278 79.13413589206962
lradius 19.88861563303134
lwrist 3.206676171878656
lhand -29.13585360280825 19.76347744038857
lfingers 7.12502
lthumb -2.4163459470107953 48.90611930330416
rclavicle 1.4793845926997974e-16 2.377427049795943e-16
rhumerus -20.540495581742306 -11.32932774496749 -80.5868751368724
rradius 31.369097662171367
rwrist -0.541921561330267
rhand -18.991889038912777 23.805087228456028
rfingers 7.12502
rthumb 7.038740372716454 -6.248410013254893
